<svg xmlns="http://www.w3.org/2000/svg" viewBox="0 0 2999.2737175409716 1057" width="2999.2737175409716" height="1057">
            <defs>
                <marker id="arrowhead_light" markerWidth="10" markerHeight="7" refX="9" refY="3.5" orient="auto">
                    <polygon points="0 0, 10 3.5, 0 7" fill="#94a3b8" />
                </marker>
            </defs><rect x="0" y="0" width="2999.2737175409716" height="1057" fill="#ffffff" /><rect x="0" y="0" width="360" height="1057" fill="#f8fafc" stroke="#cbd5e1" stroke-width="2"/><text x="20" y="40" fill="#3b82f6" font-family="Inter, sans-serif" font-size="24" font-weight="900">CTF BOARD SNAPSHOT</text><rect x="20" y="65" width="300" height="30" rx="4" fill="#ffffff" stroke="#cbd5e1" /><text x="30" y="85" fill="#0f172a" font-family="Inter, sans-serif" font-size="14" font-weight="bold">Soupedecode 01</text><text x="20" y="125" fill="#64748b" font-family="Inter, sans-serif" font-size="11" font-weight="bold">TARGET &amp; IPS</text><text x="20" y="140" fill="#0f172a" font-family="Inter, monospace, sans-serif" font-size="12" font-weight="normal">My IP: 192.168.XXX.XXX</text><text x="20" y="156.8" fill="#0f172a" font-family="Inter, monospace, sans-serif" font-size="12" font-weight="normal">Target 1 IP:  10.114.164.153</text><text x="20" y="198.6" fill="#64748b" font-family="Inter, sans-serif" font-size="11" font-weight="bold">CREDENTIALS</text><text x="20" y="223.6" fill="#64748b" font-family="Inter, sans-serif" font-size="10" font-weight="bold">DOMAIN (SOUPEDECODE.LOCAL)</text><line x1="20" y1="229.6" x2="320" y2="229.6" stroke="#cbd5e1" stroke-width="1" /><rect x="20" y="237.6" width="300" height="38" rx="4" fill="#ffffff" stroke="#cbd5e1" /><text x="30" y="253.6" fill="#10b981" font-family="Inter, sans-serif" font-size="11" font-weight="bold">U: ybob317</text><text x="30" y="267.6" fill="#ef4444" font-family="Inter, sans-serif" font-size="11">P: ybob317</text><rect x="20" y="283.6" width="300" height="38" rx="4" fill="#ffffff" stroke="#cbd5e1" /><text x="30" y="299.6" fill="#10b981" font-family="Inter, sans-serif" font-size="11" font-weight="bold">U: file_svc</text><text x="30" y="313.6" fill="#ef4444" font-family="Inter, sans-serif" font-size="11">P: Password123!!</text><text x="20" y="347.6" fill="#64748b" font-family="Inter, sans-serif" font-size="10" font-weight="bold">MACHINE ACCOUNT</text><line x1="20" y1="353.6" x2="320" y2="353.6" stroke="#cbd5e1" stroke-width="1" /><rect x="20" y="361.6" width="300" height="38" rx="4" fill="#ffffff" stroke="#cbd5e1" /><text x="30" y="377.6" fill="#10b981" font-family="Inter, sans-serif" font-size="11" font-weight="bold">U: FileServer</text><text x="30" y="391.6" fill="#ef4444" font-family="Inter, sans-serif" font-size="11">P: Pwn3d</text><text x="20" y="425.6" fill="#64748b" font-family="Inter, sans-serif" font-size="11" font-weight="bold">LOOT &amp; NOTES</text><text x="20" y="450.6" fill="#64748b" font-family="Inter, sans-serif" font-size="12">None</text><path d="M 1264.4667627855954 150 C 1264.4667627855954 220.5, 1511.4667627855954 220.5, 1511.4667627855954 291" fill="none" stroke="#94a3b8" stroke-width="2" marker-end="url(#arrowhead_light)" /><path d="M 1511.4667627855954 357 C 1511.4667627855954 424, 1105.4667627855954 424, 1105.4667627855954 491" fill="none" stroke="#94a3b8" stroke-width="2" marker-end="url(#arrowhead_light)" /><path d="M 1105.4667627855954 557 C 1105.4667627855954 624, 540.4667627855954 624, 540.4667627855954 691" fill="none" stroke="#94a3b8" stroke-width="2" marker-end="url(#arrowhead_light)" /><path d="M 1511.4667627855954 357 C 1511.4667627855954 424, 1907.4667627855954 424, 1907.4667627855954 491" fill="none" stroke="#94a3b8" stroke-width="2" marker-end="url(#arrowhead_light)" /><path d="M 1907.4667627855954 557 C 1907.4667627855954 624, 861.4667627855954 624, 861.4667627855954 691" fill="none" stroke="#94a3b8" stroke-width="2" marker-end="url(#arrowhead_light)" /><path d="M 861.4667627855954 757 C 861.4667627855954 824, 1105.4667627855954 824, 1105.4667627855954 891" fill="none" stroke="#94a3b8" stroke-width="2" marker-end="url(#arrowhead_light)" /><path d="M 1907.4667627855954 557 C 1907.4667627855954 624, 1352.4667627855954 624, 1352.4667627855954 691" fill="none" stroke="#94a3b8" stroke-width="2" marker-end="url(#arrowhead_light)" /><path d="M 1907.4667627855954 557 C 1907.4667627855954 624, 1668.4667627855954 624, 1668.4667627855954 691" fill="none" stroke="#94a3b8" stroke-width="2" marker-end="url(#arrowhead_light)" /><path d="M 1907.4667627855954 557 C 1907.4667627855954 624, 2199.466762785595 624, 2199.466762785595 691" fill="none" stroke="#94a3b8" stroke-width="2" marker-end="url(#arrowhead_light)" /><path d="M 1907.4667627855954 557 C 1907.4667627855954 624, 2831.466762785595 624, 2831.466762785595 691" fill="none" stroke="#94a3b8" stroke-width="2" marker-end="url(#arrowhead_light)" /><path d="M 2831.466762785595 757 C 2831.466762785595 824, 2540.466762785595 824, 2540.466762785595 891" fill="none" stroke="#94a3b8" stroke-width="2" marker-end="url(#arrowhead_light)" /><rect x="1170.5299705201078" y="104" width="190.966796875" height="50" rx="6" ry="6" fill="rgba(0,0,0,0.2)" /><rect x="1168.5299705201078" y="100" width="190.966796875" height="50" rx="6" ry="6" fill="#f1f5f9" stroke="#94a3b8" stroke-width="2" /><text x="1264.4667627855954" y="129" fill="#1e293b" font-family="Inter, monospace, sans-serif" font-size="14" font-weight="normal" text-anchor="middle">Target: 10.114.164.153</text><rect x="1457.131437343083" y="297" width="111.8134765625" height="64" rx="6" ry="6" fill="rgba(0,0,0,0.2)" /><rect x="1455.131437343083" y="293" width="111.8134765625" height="64" rx="6" ry="6" fill="#dbeafe" stroke="#3b82f6" stroke-width="2" /><text x="1511.4667627855954" y="321" fill="#1e3a8a" font-family="Inter, monospace, sans-serif" font-size="14" font-weight="bold" text-anchor="middle">[1. Recon]</text><text x="1511.4667627855954" y="337" fill="#1e3a8a" font-family="Inter, monospace, sans-serif" font-size="14" font-weight="normal" text-anchor="middle">Nmap</text><rect x="1030.7033474029508" y="497" width="154.1416015625" height="64" rx="6" ry="6" fill="rgba(0,0,0,0.2)" /><rect x="1028.7033474029508" y="493" width="154.1416015625" height="64" rx="6" ry="6" fill="#f3e8ff" stroke="#8b5cf6" stroke-width="2" /><text x="1105.4667627855954" y="521" fill="#4c1d95" font-family="Inter, monospace, sans-serif" font-size="14" font-weight="bold" text-anchor="middle">[2. Enum] 💻 📝</text><text x="1105.4667627855954" y="537" fill="#4c1d95" font-family="Inter, monospace, sans-serif" font-size="14" font-weight="normal" text-anchor="middle">53/tcp DNS</text><rect x="462" y="697" width="160.8271484375" height="64" rx="6" ry="6" fill="rgba(0,0,0,0.2)" /><rect x="460" y="693" width="160.8271484375" height="64" rx="6" ry="6" fill="#f3e8ff" stroke="#8b5cf6" stroke-width="2" /><text x="540.4667627855954" y="721" fill="#4c1d95" font-family="Inter, monospace, sans-serif" font-size="14" font-weight="bold" text-anchor="middle">[2. Enum] 💻 📝</text><text x="540.4667627855954" y="737" fill="#4c1d95" font-family="Inter, monospace, sans-serif" font-size="14" font-weight="normal" text-anchor="middle">DNS Enumeration</text><rect x="1832.4928321467023" y="497" width="154.1416015625" height="64" rx="6" ry="6" fill="rgba(0,0,0,0.2)" /><rect x="1830.4928321467023" y="493" width="154.1416015625" height="64" rx="6" ry="6" fill="#f3e8ff" stroke="#8b5cf6" stroke-width="2" /><text x="1907.4667627855954" y="521" fill="#4c1d95" font-family="Inter, monospace, sans-serif" font-size="14" font-weight="bold" text-anchor="middle">[2. Enum] 💻 📝</text><text x="1907.4667627855954" y="537" fill="#4c1d95" font-family="Inter, monospace, sans-serif" font-size="14" font-weight="normal" text-anchor="middle">88/tcp Kerberos</text><rect x="786.5593519131278" y="697" width="154.1416015625" height="64" rx="6" ry="6" fill="rgba(0,0,0,0.2)" /><rect x="784.5593519131278" y="693" width="154.1416015625" height="64" rx="6" ry="6" fill="#f3e8ff" stroke="#8b5cf6" stroke-width="2" /><text x="861.4667627855954" y="721" fill="#4c1d95" font-family="Inter, monospace, sans-serif" font-size="14" font-weight="bold" text-anchor="middle">[2. Enum] 💻 📝</text><text x="861.4667627855954" y="737" fill="#4c1d95" font-family="Inter, monospace, sans-serif" font-size="14" font-weight="normal" text-anchor="middle">Search users</text><rect x="1037.7244575759396" y="897" width="140.052734375" height="64" rx="6" ry="6" fill="rgba(0,0,0,0.2)" /><rect x="1035.7244575759396" y="893" width="140.052734375" height="64" rx="6" ry="6" fill="#f3e8ff" stroke="#8b5cf6" stroke-width="2" /><text x="1105.4667627855954" y="921" fill="#4c1d95" font-family="Inter, monospace, sans-serif" font-size="14" font-weight="bold" text-anchor="middle">[2. Enum]</text><text x="1105.4667627855954" y="937" fill="#4c1d95" font-family="Inter, monospace, sans-serif" font-size="14" font-weight="normal" text-anchor="middle">Try Passwords</text><rect x="1275.0859012535366" y="697" width="159.2685546875" height="64" rx="6" ry="6" fill="rgba(0,0,0,0.2)" /><rect x="1273.0859012535366" y="693" width="159.2685546875" height="64" rx="6" ry="6" fill="#f3e8ff" stroke="#8b5cf6" stroke-width="2" /><text x="1352.4667627855954" y="721" fill="#4c1d95" font-family="Inter, monospace, sans-serif" font-size="14" font-weight="bold" text-anchor="middle">[2. Enum] 💻 📝</text><text x="1352.4667627855954" y="737" fill="#4c1d95" font-family="Inter, monospace, sans-serif" font-size="14" font-weight="normal" text-anchor="middle">AS-REP Roasting</text><rect x="1595.5776095441192" y="697" width="149.9306640625" height="64" rx="6" ry="6" fill="rgba(0,0,0,0.2)" /><rect x="1593.5776095441192" y="693" width="149.9306640625" height="64" rx="6" ry="6" fill="#f3e8ff" stroke="#8b5cf6" stroke-width="2" /><text x="1668.4667627855954" y="721" fill="#4c1d95" font-family="Inter, monospace, sans-serif" font-size="14" font-weight="bold" text-anchor="middle">[2. Enum] 📝</text><text x="1668.4667627855954" y="737" fill="#4c1d95" font-family="Inter, monospace, sans-serif" font-size="14" font-weight="normal" text-anchor="middle">Password Spray</text><rect x="2051.5469679630523" y="697" width="300.123046875" height="64" rx="6" ry="6" fill="rgba(0,0,0,0.2)" /><rect x="2049.5469679630523" y="693" width="300.123046875" height="64" rx="6" ry="6" fill="#f3e8ff" stroke="#8b5cf6" stroke-width="2" /><text x="2199.466762785595" y="721" fill="#4c1d95" font-family="Inter, monospace, sans-serif" font-size="14" font-weight="bold" text-anchor="middle">[2. Enum] 💻 📝</text><text x="2199.466762785595" y="737" fill="#4c1d95" font-family="Inter, monospace, sans-serif" font-size="14" font-weight="normal" text-anchor="middle">Password Spraying on Service Accounts</text><rect x="2766.1086784784716" y="697" width="135.1650390625" height="64" rx="6" ry="6" fill="rgba(0,0,0,0.2)" /><rect x="2764.1086784784716" y="693" width="135.1650390625" height="64" rx="6" ry="6" fill="#fee2e2" stroke="#ef4444" stroke-width="2" /><text x="2831.466762785595" y="721" fill="#7f1d1d" font-family="Inter, monospace, sans-serif" font-size="14" font-weight="bold" text-anchor="middle">[3. Exploit]</text><text x="2831.466762785595" y="737" fill="#7f1d1d" font-family="Inter, monospace, sans-serif" font-size="14" font-weight="normal" text-anchor="middle">Kerberoasting</text><rect x="2384.6909500699508" y="897" width="315.3876953124999" height="64" rx="6" ry="6" fill="rgba(0,0,0,0.2)" /><rect x="2382.6909500699508" y="893" width="315.3876953124999" height="64" rx="6" ry="6" fill="#fee2e2" stroke="#ef4444" stroke-width="2" /><text x="2540.466762785595" y="921" fill="#7f1d1d" font-family="Inter, monospace, sans-serif" font-size="14" font-weight="bold" text-anchor="middle">[3. Exploit] 💻</text><text x="2540.466762785595" y="937" fill="#7f1d1d" font-family="Inter, monospace, sans-serif" font-size="14" font-weight="normal" text-anchor="middle">Offline Password Cracking (Kerberos TGS)</text></svg>